Coordinates
version=1
nRows=8
nColumns=40
inDegrees=yes

Units are S.I. units (second, meters, Newtons, ...)
If the header above contains a line with 'inDegrees', this indicates whether rotational values are in degrees (yes) or radians (no).

endheader
time	pelvis_tilt	pelvis_list	pelvis_rotation	pelvis_tx	pelvis_ty	pelvis_tz	hip_flexion_r	hip_adduction_r	hip_rotation_r	knee_angle_r	knee_angle_r_beta	ankle_angle_r	subtalar_angle_r	mtp_angle_r	hip_flexion_l	hip_adduction_l	hip_rotation_l	knee_angle_l	knee_angle_l_beta	ankle_angle_l	subtalar_angle_l	mtp_angle_l	lumbar_extension	lumbar_bending	lumbar_rotation	arm_flex_r	arm_add_r	arm_rot_r	elbow_flex_r	pro_sup_r	wrist_flex_r	wrist_dev_r	arm_flex_l	arm_add_l	arm_rot_l	elbow_flex_l	pro_sup_l	wrist_flex_l	wrist_dev_l
      5.35000000	    -40.32985259	      2.05068801	      2.45834558	      0.07583815	      0.44978913	     -1.15951930	    134.79871413	    -44.70082950	     23.02081179	    112.47724266	      1.96309822	     24.40313163	      7.19829250	      0.00000000	    129.88838540	    -42.21360798	     14.51135852	    106.16742995	      1.85297121	     20.97578710	     19.38857570	      0.00000000	      0.00000000	      0.00000000	      0.00000000	     44.99986687	    -15.00000352	     44.99986687	     75.00017585	     45.00000026	      0.00000000	      0.00000000	     44.99986687	    -15.00000352	     44.99986687	     75.00017585	     45.00000026	      0.00000000	      0.00000000
      5.35500000	    -40.46621685	      1.71056915	      2.65208590	      0.07492498	      0.45081419	     -1.16044415	    134.66153674	    -45.10634174	     22.66057813	    112.26308171	      1.95936040	     24.21530484	      7.07665351	      0.00000000	    130.02541007	    -41.64399860	     14.57669291	    105.98070918	      1.84971232	     20.76826736	     19.11126938	      0.00000000	      0.00000000	      0.00000000	      0.00000000	     44.99987029	    -15.00000320	     44.99987029	     75.00017585	     45.00000026	      0.00000000	      0.00000000	     44.99987029	    -15.00000320	     44.99987029	     75.00017585	     45.00000026	      0.00000000	      0.00000000
      5.36000000	    -40.59334808	      1.69431515	      2.66425386	      0.07405992	      0.45201066	     -1.16052283	    134.58221433	    -45.07357173	     22.43184340	    112.04645129	      1.95557949	     24.09851503	      6.96888463	      0.00000000	    129.95294325	    -41.54450922	     14.38669717	    105.76349348	      1.84592119	     20.64802459	     18.96697552	      0.00000000	      0.00000000	      0.00000000	      0.00000000	     44.99987199	    -15.00000304	     44.99987199	     75.00017585	     45.00000026	      0.00000000	      0.00000000	     44.99987199	    -15.00000304	     44.99987199	     75.00017585	     45.00000026	      0.00000000	      0.00000000
      5.36500000	    -40.71426504	      2.02803645	      2.47479516	      0.07323961	      0.45325710	     -1.15967488	    134.59809205	    -44.54476533	     22.39840212	    111.83509030	      1.95189055	     23.90168658	      6.78063899	      0.00000000	    129.68678937	    -41.94025749	     13.95828507	    105.53026102	      1.84185052	     20.52208343	     18.88343868	      0.00000000	      0.00000000	      0.00000000	      0.00000000	     44.99987331	    -15.00000292	     44.99987331	     75.00017585	     45.00000026	      0.00000000	      0.00000000	     44.99987331	    -15.00000292	     44.99987331	     75.00017585	     45.00000026	      0.00000000	      0.00000000
      5.37000000	    -40.83705183	      1.87911160	      2.65776119	      0.07231341	      0.45461161	     -1.16031180	    134.54663490	    -44.79156971	     22.20693724	    111.59774028	      1.94774801	     23.77618124	      6.73179118	      0.00000000	    129.57365110	    -41.54945169	     13.73958508	    105.28412981	      1.83755472	     20.40020988	     18.64700985	      0.00000000	      0.00000000	      0.00000000	      0.00000000	     44.99987511	    -15.00000276	     44.99987511	     75.00017585	     45.00000026	      0.00000000	      0.00000000	     44.99987511	    -15.00000276	     44.99987511	     75.00017585	     45.00000026	      0.00000000	      0.00000000
      5.37500000	    -40.98059062	      1.72981557	      2.66860570	      0.07137649	      0.45590896	     -1.16057407	    134.35159023	    -44.87068623	     21.81022236	    111.34943508	      1.94341426	     23.63179020	      6.61782347	      0.00000000	    129.62520859	    -41.33033570	     13.70361355	    105.04654217	      1.83340803	     20.21388365	     18.45045873	      0.00000000	      0.00000000	      0.00000000	      0.00000000	     44.99987642	    -15.00000265	     44.99987642	     75.00017585	     45.00000026	      0.00000000	      0.00000000	     44.99987642	    -15.00000265	     44.99987642	     75.00017585	     45.00000026	      0.00000000	      0.00000000
      5.38000000	    -41.12315304	      1.82346217	      2.62375258	      0.07044631	      0.45729323	     -1.16038122	    134.29836990	    -44.68528153	     21.62312255	    111.10081071	      1.93907495	     23.45087814	      6.45045134	      0.00000000	    129.46874189	    -41.36148430	     13.41432037	    104.79086389	      1.82894560	     20.08877735	     18.29726989	      0.00000000	      0.00000000	      0.00000000	      0.00000000	     44.99987715	    -15.00000259	     44.99987715	     75.00017585	     45.00000026	      0.00000000	      0.00000000	     44.99987715	    -15.00000259	     44.99987715	     75.00017585	     45.00000026	      0.00000000	      0.00000000
      5.38500000	    -41.26842512	      1.88297674	      2.57468915	      0.06949454	      0.45871359	     -1.16022289	    134.20564839	    -44.52517619	     21.38899800	    110.84628901	      1.93463271	     23.28685489	      6.31656614	      0.00000000	    129.34511429	    -41.37279639	     13.15862342	    104.52674030	      1.82433577	     19.94122829	     18.12569987	      0.00000000	      0.00000000	      0.00000000	      0.00000000	     44.99987821	    -15.00000250	     44.99987821	     75.00017585	     45.00000026	      0.00000000	      0.00000000	     44.99987821	    -15.00000250	     44.99987821	     75.00017585	     45.00000026	      0.00000000	      0.00000000
